Hanif_Deep_7_5_grf.mot
version=1
nRows=42
nColumns=19
inDegrees=yes
endheader
time	right_ground_force_vx	right_ground_force_vy	right_ground_force_vz	right_ground_force_px	right_ground_force_py	right_ground_force_pz	right_ground_torque_x	right_ground_torque_y	right_ground_torque_z	left_ground_force_vx	left_ground_force_vy	left_ground_force_vz	left_ground_force_px	left_ground_force_py	left_ground_force_pz	left_ground_torque_x	left_ground_torque_y	left_ground_torque_z
8.300000	-6.586930	272.106000	47.973000	0.224931	0.000000	-1.418280	-23.894300	-0.694483	6.974070	-1.532840	249.413000	-48.245500	0.219207	0.000000	-1.007610	26.116600	-2.997610	5.580640
8.305000	-7.109500	271.530000	47.706500	0.225400	0.000000	-1.418960	-23.664400	-0.665897	7.101600	-2.357400	246.657000	-48.118500	0.218993	0.000000	-1.007460	25.805600	-2.942800	5.485090
8.310000	-7.606970	267.973000	48.115700	0.225493	0.000000	-1.417060	-23.865300	-0.792971	7.030670	-2.699160	244.086000	-47.742000	0.218732	0.000000	-1.007820	25.630400	-2.858670	5.361670
8.315000	-7.323440	266.200000	47.712800	0.224982	0.000000	-1.417640	-23.552200	-0.710451	6.852450	-3.441920	243.841000	-48.097300	0.219155	0.000000	-1.007150	25.453000	-2.820490	5.479650
8.320000	-7.062710	266.763000	48.082600	0.225897	0.000000	-1.417570	-23.618000	-0.796728	7.101680	-3.950100	241.078000	-48.609000	0.219981	0.000000	-1.008380	25.471300	-2.725460	5.646160
8.325000	-6.505280	266.916000	48.599700	0.225958	0.000000	-1.417290	-23.705000	-0.762369	7.124440	-3.545430	243.071000	-48.877100	0.221443	0.000000	-1.008450	25.688900	-2.563610	6.013560
8.330000	-6.100200	266.171000	49.361400	0.226549	0.000000	-1.415470	-24.121700	-0.814397	7.261070	-3.980580	243.230000	-48.686200	0.220886	0.000000	-1.007900	25.580400	-2.612350	5.890230
8.335000	-5.491770	268.459000	49.139000	0.226466	0.000000	-1.416490	-24.050500	-0.827407	7.281540	-4.281520	241.603000	-49.465500	0.221539	0.000000	-1.008130	25.470200	-2.507580	6.027660
8.340000	-4.491700	267.329000	49.715100	0.227706	0.000000	-1.416910	-23.834600	-0.770053	7.594070	-4.176640	239.725000	-49.951800	0.220712	0.000000	-1.007990	25.234700	-2.336860	5.759060
8.345000	-4.103390	264.097000	49.893000	0.227477	0.000000	-1.416070	-23.766000	-0.716966	7.449990	-3.819720	237.266000	-50.115300	0.221548	0.000000	-1.008040	24.984100	-2.370640	5.926180
8.350000	-3.133470	262.725000	49.791100	0.229165	0.000000	-1.415470	-23.795300	-0.736638	7.851750	-3.644610	236.864000	-50.238400	0.221721	0.000000	-1.008270	24.990900	-2.208780	5.926140
8.355000	-2.835500	265.480000	50.492100	0.227455	0.000000	-1.415600	-24.007800	-0.865677	7.436440	-3.756620	234.367000	-50.826400	0.222146	0.000000	-1.007900	24.642800	-2.096960	5.974660
8.360000	-2.718270	261.109000	49.954300	0.227284	0.000000	-1.415460	-23.649400	-0.795042	7.279960	-3.919840	232.883000	-50.229900	0.222353	0.000000	-1.009830	24.939600	-2.102990	5.991630
8.365000	-2.406460	259.882000	51.167200	0.227622	0.000000	-1.414650	-23.748100	-0.864446	7.329890	-4.289210	230.983000	-50.020700	0.222347	0.000000	-1.009360	24.634000	-2.066370	5.950120
8.370000	-1.837630	254.015000	51.062400	0.228058	0.000000	-1.413720	-23.444300	-0.915749	7.265160	-4.370730	230.519000	-50.013300	0.221930	0.000000	-1.008020	24.273000	-1.864280	5.797230
8.375000	-1.044290	250.657000	50.414400	0.228533	0.000000	-1.414040	-23.051900	-1.048620	7.249660	-5.097640	225.867000	-50.097200	0.222991	0.000000	-1.008610	23.930000	-1.699270	5.944690
8.380000	-0.873137	247.696000	49.508700	0.229076	0.000000	-1.413320	-22.959500	-0.878493	7.330220	-5.183330	223.982000	-50.143400	0.222307	0.000000	-1.008410	23.683500	-1.534240	5.712640
8.385000	-1.555140	244.007000	49.252700	0.229169	0.000000	-1.412780	-22.751000	-1.013460	7.232210	-5.717300	222.108000	-49.592800	0.222823	0.000000	-1.008650	23.547100	-1.396340	5.768670
8.390000	-1.716160	240.952000	49.041000	0.228840	0.000000	-1.412450	-22.544800	-1.064140	7.053040	-6.506860	215.954000	-48.865100	0.222023	0.000000	-1.006650	22.479600	-1.400110	5.468940
8.395000	-1.980760	239.115000	48.346900	0.230501	0.000000	-1.413080	-22.221200	-1.210590	7.383890	-6.416380	212.279000	-48.241600	0.222518	0.000000	-1.008620	22.510300	-1.201300	5.453910
8.400000	-1.402470	239.065000	47.984700	0.230001	0.000000	-1.412540	-22.346400	-1.107410	7.265210	-6.416450	207.154000	-48.581500	0.221473	0.000000	-1.009330	22.113800	-1.097780	5.110340
8.405000	-1.863060	238.307000	47.452800	0.230687	0.000000	-1.413720	-21.994500	-1.192830	7.399550	-6.258080	203.852000	-48.038700	0.221452	0.000000	-1.006770	21.236700	-0.995199	5.003410
8.410000	-2.434300	232.202000	47.609000	0.229819	0.000000	-1.410950	-22.075000	-1.214110	7.013590	-6.238610	200.189000	-47.061500	0.220536	0.000000	-1.007790	21.055100	-0.853845	4.692730
8.415000	-2.596950	229.455000	46.974800	0.230515	0.000000	-1.412280	-21.509300	-1.236670	7.091800	-6.570760	195.132000	-45.962600	0.220677	0.000000	-1.007740	20.520900	-0.845484	4.619890
8.420000	-1.789770	223.926000	46.594000	0.230231	0.000000	-1.411250	-21.220000	-1.077830	6.873540	-6.905030	189.668000	-45.510300	0.219422	0.000000	-1.007940	19.991000	-0.810548	4.264080
8.425000	-2.139830	221.537000	45.786800	0.229002	0.000000	-1.412010	-20.826100	-1.202920	6.492450	-7.073130	183.738000	-44.737400	0.220058	0.000000	-1.007680	19.322900	-0.662055	4.245450
8.430000	-2.213640	217.277000	46.324600	0.229820	0.000000	-1.411900	-20.448900	-1.177220	6.567070	-7.278280	179.458000	-43.417600	0.218656	0.000000	-1.007930	18.921100	-0.661901	3.888840
8.435000	-2.214880	215.766000	45.875100	0.230122	0.000000	-1.413150	-20.037600	-1.271940	6.566310	-8.075670	177.194000	-42.638500	0.218987	0.000000	-1.008200	18.741500	-0.552990	3.896610
8.440000	-2.487780	217.154000	45.986800	0.229820	0.000000	-1.412640	-20.278300	-1.257040	6.548890	-7.813200	175.724000	-42.018700	0.218382	0.000000	-1.006770	18.326200	-0.462160	3.719300
8.445000	-3.092150	216.555000	46.355300	0.229441	0.000000	-1.412510	-20.253000	-1.116930	6.490490	-8.051190	174.245000	-40.657800	0.219121	0.000000	-1.008140	18.416100	-0.467405	3.819760
8.450000	-3.523810	214.992000	46.806900	0.228701	0.000000	-1.412260	-20.162800	-1.150360	6.284510	-7.882040	171.726000	-40.677100	0.217204	0.000000	-1.007770	18.079800	-0.388307	3.407800
8.455000	-3.593510	213.305000	46.380400	0.229469	0.000000	-1.411150	-20.241000	-1.132760	6.410940	-7.749270	174.230000	-39.709800	0.217346	0.000000	-1.006820	18.169300	-0.322711	3.436030
8.460000	-3.452030	214.719000	46.388200	0.228377	0.000000	-1.413580	-19.851700	-1.182310	6.190990	-6.882120	171.829000	-39.618500	0.216746	0.000000	-1.008390	18.177500	-0.337503	3.275460
8.465000	-3.654630	212.836000	47.174400	0.228725	0.000000	-1.414720	-19.436100	-1.233890	6.214600	-6.283530	171.469000	-39.129200	0.216405	0.000000	-1.008470	18.145400	-0.355629	3.191820
8.470000	-3.376300	212.483000	47.245500	0.227116	0.000000	-1.412710	-19.830900	-1.085370	5.875170	-5.413030	171.344000	-39.187700	0.216368	0.000000	-1.008080	18.051000	-0.274780	3.144210
8.475000	-2.515550	212.821000	47.238100	0.228312	0.000000	-1.412640	-19.876200	-1.040450	6.143520	-5.325240	169.158000	-38.781600	0.214351	0.000000	-1.008120	17.826600	-0.276790	2.746920
8.480000	-3.225050	208.024000	46.530500	0.228616	0.000000	-1.413750	-19.197900	-1.157430	6.058220	-4.948040	165.877000	-38.268100	0.211249	0.000000	-1.007180	17.318600	-0.297780	2.152960
8.485000	-4.009710	205.108000	46.160600	0.227293	0.000000	-1.413800	-18.921300	-1.115700	5.713550	-5.277260	163.751000	-37.810800	0.211587	0.000000	-1.007480	17.149500	-0.280720	2.190730
8.490000	-3.696490	200.315000	45.183000	0.226408	0.000000	-1.413340	-18.567500	-1.231730	5.358420	-4.407980	161.271000	-37.294900	0.210646	0.000000	-1.007450	16.873700	-0.214382	1.964700
8.495000	-5.379130	198.092000	44.743000	0.225203	0.000000	-1.414440	-18.148200	-1.193970	5.088850	-4.920880	160.162000	-36.413800	0.208972	0.000000	-1.005710	16.484700	-0.285875	1.691150
8.500000	-6.028930	195.733000	43.794200	0.225320	0.000000	-1.415350	-17.757600	-1.194750	5.059060	-5.193780	159.034000	-35.767600	0.207467	0.000000	-1.005580	16.348600	-0.252314	1.424070
8.505000	-6.822750	192.196000	43.882500	0.225047	0.000000	-1.414790	-17.544700	-1.327640	4.903850	-5.799400	157.562000	-34.407400	0.205167	0.000000	-1.002140	15.660600	-0.311864	1.046600
